<?xml version="1.0" encoding="UTF-8"?><svg id="Capa_2" xmlns="http://www.w3.org/2000/svg" viewBox="0 0 423.03 339.65"><defs><style>.cls-1{fill:#e52722;}.cls-2{fill:none;stroke:#fff;stroke-linecap:round;stroke-linejoin:round;stroke-width:31px;}</style></defs><g id="Capa_1-2"><polyline class="cls-2" points="310.7 49.56 310.7 15.8 310.7 15.5 105.09 15.5 15.5 169.8 15.5 169.85 105.09 324.15 220.76 324.15 220.76 172.37 220.76 171.37 174.98 94.38 174.39 93.08 362.54 93.08 407.53 171.08 363.46 249.37 363.54 249.37 221.76 249.37"/><path class="cls-1" d="m261.24,280.02c2.34,0,4.06.3,5.15.91,1.09.61,1.87,1.45,2.34,2.52.46,1.07.9,2.25,1.32,3.55l-6.71.1c-.61-1.42-1.5-2.22-2.65-2.39-1.15-.17-2.22-.22-3.21-.16-.99.07-1.45.34-1.39.81s.26,1.17.59,2.1.67,1.57.99,1.93c.33.36.78.65,1.37.86.59.22,1.73.33,3.43.33s3.47.14,5.3.41,3.09,1.08,3.78,2.41c.69,1.33,1.22,3.12,1.59,5.37.37,2.25.42,3.83.14,4.74s-1.53,1.67-3.75,2.27h-8.1c-5.2.2-8.09-1.72-8.65-5.75l-.16-2.41h6.37c.2,1.22.39,1.99.57,2.32.18.33.4.58.64.76.25.18,2.04.27,5.4.27,1.26-.25,1.7-1.19,1.32-2.82s-1.01-2.54-1.92-2.75c-.91-.21-2.23-.36-3.96-.43-1.74-.08-3.37-.15-4.88-.22-1.52-.07-2.7-.43-3.53-1.07-.84-.64-1.52-1.83-2.05-3.56s-1.01-3.22-1.43-4.47-.73-2.19-.93-2.84-.06-1.22.44-1.72c.5-.5,1.21-.82,2.14-.96.93-.14,2.71-.21,5.33-.21s4.32.03,5.1.1Z"/><path class="cls-1" d="m278.48,305.5c-.21-2.82-.45-5.19-.74-7.1-.28-1.91-.63-3.72-1.05-5.42s-.91-3.43-1.46-5.2c-.55-1.76-1.41-4.35-2.57-7.75h18.31c1.18,2.36,1.93,4.16,2.25,5.42l-11.97-.1c.62,1.69,1.1,3.11,1.43,4.25l11.95.1c.43,1.49.82,3.22,1.16,5.2h-11.96c.48,2.82.74,4.59.76,5.3l12.23.1c.16,1.77.26,3.54.28,5.31h-18.63v-.11Z"/><path class="cls-1" d="m295.82,279.71c6.46.07,10.87.14,13.25.21s3.85.25,4.42.51,1.17.62,1.81,1.08c.64.46,1.21,1.27,1.73,2.44s.98,2.49,1.41,3.98c.42,1.49.68,2.49.77,3.02.09.52.06,1.19-.08,2s-1.14,1.69-2.99,2.63c3.62,2.87,6.33,6.29,8.16,10.27h-7.5c-1.35-2.03-2.53-3.53-3.53-4.51-1-.98-2.62-2.08-4.86-3.31.22,1.25.6,3.82,1.16,7.72h-7.5c-.34-3.56-.66-6.34-.96-8.34-.3-2-.7-3.98-1.18-5.94s-1.09-3.97-1.82-6.05c-.73-2.07-1.49-3.98-2.28-5.71Zm11.31,12.32c1.99,0,3.28-.08,3.86-.25.58-.17.92-.48,1-.96s.09-.89,0-1.27c-.08-.37-.35-1.11-.8-2.22s-1-1.83-1.64-2.17-2.27-.5-4.86-.5c.81,1.82,1.62,4.28,2.44,7.36Z"/><path class="cls-1" d="m329.22,305.64c-.07-2.08-.23-3.81-.49-5.21s-.57-2.81-.93-4.24c-.36-1.43-.79-2.97-1.28-4.62-.49-1.65-1.02-3.22-1.6-4.73s-1.09-2.8-1.55-3.87-.94-2.11-1.45-3.12l7,.11c1.42,3.08,2.48,5.49,3.18,7.25s1.35,3.73,1.95,5.91,1.04,4.21,1.34,6.07c.3,1.86.54,4.01.73,6.44h-6.88Z"/><path class="cls-1" d="m340.89,305.5c-.21-2.82-.45-5.19-.74-7.1-.28-1.91-.63-3.72-1.05-5.42s-.91-3.43-1.46-5.2c-.55-1.76-1.41-4.35-2.57-7.75h18.31c1.18,2.36,1.93,4.16,2.25,5.42l-11.97-.1c.62,1.69,1.1,3.11,1.43,4.25l11.95.1c.43,1.49.82,3.22,1.16,5.2h-11.96c.48,2.82.74,4.59.76,5.3l12.23.1c.16,1.77.26,3.54.28,5.31h-18.63v-.11Z"/><path class="cls-1" d="m371.33,280.02c2.34,0,4.06.3,5.15.91,1.09.61,1.87,1.45,2.34,2.52.46,1.07.9,2.25,1.32,3.55l-6.71.1c-.61-1.42-1.5-2.22-2.65-2.39-1.15-.17-2.22-.22-3.21-.16-.99.07-1.45.34-1.39.81s.26,1.17.59,2.1.67,1.57.99,1.93c.33.36.78.65,1.37.86.59.22,1.73.33,3.43.33s3.47.14,5.3.41,3.09,1.08,3.78,2.41c.69,1.33,1.22,3.12,1.59,5.37.37,2.25.42,3.83.14,4.74s-1.53,1.67-3.75,2.27h-8.1c-5.2.2-8.09-1.72-8.65-5.75l-.16-2.41h6.37c.2,1.22.39,1.99.57,2.32.18.33.4.58.64.76.25.18,2.04.27,5.4.27,1.26-.25,1.7-1.19,1.32-2.82s-1.01-2.54-1.92-2.75c-.91-.21-2.23-.36-3.96-.43-1.74-.08-3.37-.15-4.88-.22-1.52-.07-2.7-.43-3.53-1.07-.84-.64-1.52-1.83-2.05-3.56s-1.01-3.22-1.43-4.47-.73-2.19-.93-2.84-.06-1.22.44-1.72c.5-.5,1.21-.82,2.14-.96.93-.14,2.71-.21,5.33-.21s4.32.03,5.1.1Z"/></g></svg>